<svg xmlns="http://www.w3.org/2000/svg" width="50" height="49.47" viewBox="0 0 50 49.47">
  <path id="logo" d="M33.593-.062a3.625,3.625,0,0,0-3.275,3.4,7.026,7.026,0,0,0,.749,3.182,4.079,4.079,0,0,1-2.4.9l-.031,2.682c.144-.01.254-.031.405-.031a5.359,5.359,0,0,1,5.115,3.712,10.085,10.085,0,0,0,.967-1.684,2.508,2.508,0,0,0,2.62,0,3.859,3.859,0,0,0,3.306-.437c1.314.437,3.259,0,3.587-.873,3.941.109,5.146-2.54,5.365-3.306C43.1,8.142,40.487-.062,33.593-.062ZM16.344,0C9.479,0,6.865,8.171,0,7.517c.219.764,1.41,3.384,5.334,3.275.219.764,2.295,1.2,3.493.873A3.8,3.8,0,0,0,12.1,12.1a2.514,2.514,0,0,0,2.62,0,10.472,10.472,0,0,0,1.029,1.778,5.334,5.334,0,0,1,5.115-3.805c.124,0,.225.024.343.031l-.094-2.651a3.936,3.936,0,0,1-2.277-.9,6.634,6.634,0,0,0,.78-3.15A3.636,3.636,0,0,0,16.344,0Zm8.609,0a2.994,2.994,0,1,0,2.994,2.994A2.994,2.994,0,0,0,24.953,0Zm-1.84,7.611.281,7.33c.626.278,1.178.5,1.185.5.594.231,1.239.494,1.9.78l.187-8.546a4.894,4.894,0,0,1-1.716.312A4.964,4.964,0,0,1,23.113,7.611Zm-2.246,4.46a3.219,3.219,0,0,0-3.306,3.088c0,5.39,9.888,4.816,9.888,8.609a3.275,3.275,0,0,1-1.029,2.152c.007,0,.025,0,.031,0,.241.169.486.33.686.468.628.433,1.291.9,1.934,1.4a6.639,6.639,0,0,0,1.871-4.429c0-5.49-10.886-6.089-10.886-8.484.8.1,3.088.087,3.088-1.31C23.144,12.969,22.564,12.071,20.867,12.071Zm8.172,0c-1.7,0-2.277.9-2.277,1.5,0,1.4,2.289,1.41,3.088,1.31a3.642,3.642,0,0,1-1.622,2.152,12.661,12.661,0,0,1,2.464,1.653,3.976,3.976,0,0,0,1.653-3.525A3.218,3.218,0,0,0,29.039,12.071ZM20.43,21.335a4.214,4.214,0,0,0-1.061,2.714c0,5.889,7.891,6.388,7.891,9.482a1.368,1.368,0,0,1-.312.78,11.115,11.115,0,0,1,2.371,1.9,4.285,4.285,0,0,0,1.123-2.87c0-4.093-7.891-6.09-7.891-8.983a2.8,2.8,0,0,1,.78-1.809c-.335-.14-.643-.27-.9-.374C21.8,21.928,21.107,21.647,20.43,21.335Zm4.679,2.09a2.084,2.084,0,0,1-.25.437,1.6,1.6,0,0,0-.312.437,2.023,2.023,0,0,0,.343.374c.034-.042.057-.085.094-.125a1.479,1.479,0,0,0,.468-.78A1.069,1.069,0,0,0,25.109,23.425Zm-4.086,7.268a4.382,4.382,0,0,0-1.061,2.651c0,5.264,6.72,4.025,5.9,8.11a1.827,1.827,0,0,0,.094.25,15.978,15.978,0,0,1,2.371,1.528,5.694,5.694,0,0,0,.624-2.308,5.172,5.172,0,0,0-1.4-3.712A21.053,21.053,0,0,0,25.3,35.558c-.949-.559-2.027-1.129-2.027-1.934a2.211,2.211,0,0,1,.53-1.154c-.2-.127-.414-.236-.593-.343C22.542,31.726,21.773,31.251,21.023,30.692Zm.218,8.3a4.322,4.322,0,0,0-.281,1.528,5.3,5.3,0,0,0,2.9,4.148c1.826,1.119,2.277,1.474,2.371,2,.045.25-.146.638-.53,1.092a.992.992,0,0,0,.094,1.4,1.03,1.03,0,0,0,.655.25.959.959,0,0,0,.749-.343,3.34,3.34,0,0,0,1-2.745c-.24-1.342-2.76-2.557-3.587-3.088a2.525,2.525,0,0,1-.873-2.745,10.2,10.2,0,0,0-1.31-.811C22.068,39.48,21.666,39.259,21.241,38.989Zm.312,5.677a3.428,3.428,0,0,0-.374,2.183,3.693,3.693,0,0,0,1.934,2.464,1,1,0,0,0,.873-1.809,1.764,1.764,0,0,1-.842-1.029,1.371,1.371,0,0,1,.125-.78c-.03-.019-.063-.042-.094-.062A18.709,18.709,0,0,1,21.553,44.666Z" transform="translate(0 0.063)" fill="#4f585b"/>
</svg>
